<?xml version="1.0" standalone="no"?><!DOCTYPE svg PUBLIC "-//W3C//DTD SVG 1.1//EN" "http://www.w3.org/Graphics/SVG/1.1/DTD/svg11.dtd"><svg class="icon" width="200px" height="200.00px" viewBox="0 0 1024 1024" version="1.1" xmlns="http://www.w3.org/2000/svg"><path fill="#333333" d="M938.667 553.929c0.011 0.496 0.011 0.991 0 1.485V768c0 64.801-52.532 117.333-117.334 117.333H202.667c-64.802 0-117.334-52.532-117.334-117.333V256c0-64.801 52.532-117.333 117.334-117.333h618.666c64.802 0 117.334 52.532 117.334 117.333v297.929z m-64-74.631V256c0-29.455-23.878-53.333-53.334-53.333H202.667c-29.456 0-53.334 23.878-53.334 53.333v344.476A290.087 290.087 0 0 1 192 597.333c66.382 0 129.398 22.567 180.117 63.262 1.002 0.804 2.06 1.663 3.175 2.579C427.035 528.38 556.917 437.334 704 437.334c65.714 0 126.992 16.782 170.667 41.964z m0 82.23c-5.334-8.313-21.136-21.652-43.645-32.906-34.258-17.13-77.972-27.289-127.022-27.289-121.769 0-229.135 76.27-270.432 188.7-2.734 7.444-7.402 20.315-13.99 38.577-7.683 21.3-34.452 28.1-51.37 13.05-16.445-14.628-28.56-25.062-36.144-31.147-39.46-31.661-88.379-49.18-140.064-49.18a225.34 225.34 0 0 0-42.667 4.053V768c0 29.455 23.878 53.333 53.334 53.333h618.666c29.456 0 53.334-23.878 53.334-53.333V561.527zM320 480c-53.02 0-96-42.98-96-96s42.98-96 96-96 96 42.98 96 96-42.98 96-96 96z m0-64c17.673 0 32-14.327 32-32 0-17.673-14.327-32-32-32-17.673 0-32 14.327-32 32 0 17.673 14.327 32 32 32z"  /></svg>